<svg width="300" height="44" viewBox="0 0 300 44" fill="none" xmlns="http://www.w3.org/2000/svg">
<g clip-path="url(#clip0_95_1335)">
<path d="M66.2407 22.8778H60.7711C60.4049 22.8778 60.0388 22.7283 59.6727 22.422L59.0525 21.8989C58.7312 21.6374 58.5743 21.331 58.5743 20.9798V16.2425C58.5743 15.7867 58.7611 15.4056 59.1272 15.0992L59.6727 14.6434C60.0388 14.3371 60.4049 14.1876 60.7711 14.1876H66.8609C67.227 14.1876 67.5932 14.3371 67.9593 14.6434L68.5048 15.0992C68.8709 15.4056 69.0577 15.7867 69.0577 16.2425V17.1615H67.1374V16.7282C67.1374 16.4965 67.1224 16.3471 67.1 16.2798C67.0776 16.2126 66.9954 16.1229 66.8609 16.0183C66.7264 15.9137 66.6143 15.8464 66.5396 15.824C66.4649 15.8016 66.2855 15.7867 66.0165 15.7867H61.6229C61.3464 15.7867 61.1746 15.8016 61.0999 15.824C61.0251 15.8464 60.9131 15.9137 60.7786 16.0183C60.6441 16.1229 60.5619 16.2126 60.5394 16.2798C60.517 16.3471 60.5021 16.4965 60.5021 16.7282V20.3447C60.5021 20.5763 60.517 20.7258 60.5394 20.793C60.5619 20.8603 60.6441 20.9499 60.7786 21.0545C60.9131 21.1592 61.0251 21.2264 61.0999 21.2488C61.1746 21.2712 61.3539 21.2862 61.6229 21.2862H67.0925C67.4587 21.2862 67.8248 21.4356 68.1909 21.742L68.7439 22.1978C69.11 22.5041 69.2894 22.8852 69.2894 23.341V28.1456C69.2894 28.6014 69.11 28.9825 68.7439 29.2889L68.1909 29.7447C67.8248 30.051 67.4587 30.2005 67.0925 30.2005H60.5469C60.1808 30.2005 59.8146 30.051 59.4485 29.7447L58.903 29.2889C58.5369 28.9825 58.3501 28.6014 58.3501 28.1456V27.2266H60.2705V27.6599C60.2705 27.8916 60.2854 28.041 60.3078 28.1083C60.3302 28.1755 60.4124 28.2652 60.5469 28.3698C60.6814 28.4744 60.7935 28.5417 60.8682 28.5641C60.9429 28.5865 61.1223 28.6014 61.3913 28.6014H66.2407C66.5172 28.6014 66.689 28.5865 66.7638 28.5641C66.8385 28.5417 66.9506 28.4744 67.0851 28.3698C67.2196 28.2652 67.3018 28.1755 67.3242 28.1083C67.3466 28.041 67.3615 27.8916 67.3615 27.6599V23.8118C67.3615 23.5801 67.3466 23.4307 67.3242 23.3634C67.3018 23.2962 67.2196 23.2065 67.0851 23.1019C66.9506 22.9973 66.8385 22.9301 66.7638 22.9076C66.689 22.8852 66.5097 22.8703 66.2407 22.8703V22.8778Z" fill="white"/>
<path d="M72.0093 14.1802H84.0918V15.7792H79.0107V30.2005H77.0903V15.7792H72.0093V14.1802Z" fill="white"/>
<path d="M86.2661 30.2005L91.7582 14.1802H94.4556L100.06 30.2005H98.1394L96.9513 26.8829H89.3297L88.1865 30.2005H86.2661ZM93.1555 15.5551H93.0658C93.0658 15.7419 93.0135 15.9586 92.9089 16.2201L89.8229 25.3959H96.4806L93.3198 16.2201C93.2152 15.9586 93.1629 15.7419 93.1629 15.5551H93.1555Z" fill="white"/>
<path d="M104.64 14.1802H113.106C113.472 14.1802 113.838 14.3296 114.205 14.636L114.75 15.0918C115.116 15.3981 115.303 15.7792 115.303 16.235V21.5926C115.303 22.0633 115.109 22.4593 114.728 22.7806L114.152 23.2589C113.816 23.5353 113.465 23.6698 113.099 23.6698H111.813L114.167 27.3312C114.332 27.5927 114.451 27.7571 114.518 27.8244C114.586 27.8916 114.743 27.9962 114.989 28.1307L115.243 28.2652C115.52 28.4147 115.677 28.5417 115.721 28.6313C115.766 28.721 115.789 28.9452 115.789 29.2964V30.1856H115.213C114.937 30.1856 114.75 30.1706 114.653 30.1407C114.556 30.1108 114.384 30.0137 114.137 29.8418L113.704 29.543C113.368 29.3113 113.091 29.0199 112.882 28.6538L109.841 23.7819H106.546V30.193H104.625V14.1802H104.64ZM106.561 15.7792V22.1903H112.262C112.538 22.1903 112.71 22.1754 112.785 22.153C112.86 22.1306 112.964 22.0633 113.106 21.9587C113.241 21.8541 113.323 21.7644 113.345 21.6972C113.368 21.6299 113.383 21.4805 113.383 21.2488V16.7207C113.383 16.4891 113.368 16.3396 113.345 16.2724C113.323 16.2051 113.241 16.1155 113.106 16.0109C112.972 15.9062 112.86 15.839 112.785 15.8166C112.71 15.7942 112.531 15.7792 112.262 15.7792H106.561Z" fill="white"/>
<path d="M118.763 14.1802H130.845V15.7792H125.764V30.2005H123.844V15.7792H118.763V14.1802Z" fill="white"/>
<path d="M158.47 22.8778H153C152.634 22.8778 152.268 22.7283 151.902 22.422L151.281 21.8989C150.96 21.6374 150.803 21.331 150.803 20.9798V16.2425C150.803 15.7867 150.99 15.4056 151.356 15.0992L151.902 14.6434C152.268 14.3371 152.634 14.1876 153 14.1876H159.09C159.456 14.1876 159.822 14.3371 160.188 14.6434L160.734 15.0992C161.1 15.4056 161.287 15.7867 161.287 16.2425V17.1615H159.366V16.7282C159.366 16.4965 159.351 16.3471 159.329 16.2798C159.307 16.2126 159.224 16.1229 159.09 16.0183C158.955 15.9137 158.843 15.8464 158.769 15.824C158.694 15.8016 158.515 15.7867 158.246 15.7867H153.852C153.575 15.7867 153.404 15.8016 153.329 15.824C153.254 15.8464 153.142 15.9137 153.008 16.0183C152.873 16.1229 152.791 16.2126 152.768 16.2798C152.746 16.3471 152.731 16.4965 152.731 16.7282V20.3447C152.731 20.5763 152.746 20.7258 152.768 20.793C152.791 20.8603 152.873 20.9499 153.008 21.0545C153.142 21.1592 153.254 21.2264 153.329 21.2488C153.404 21.2712 153.583 21.2862 153.852 21.2862H159.322C159.688 21.2862 160.054 21.4356 160.42 21.742L160.973 22.1978C161.339 22.5041 161.518 22.8852 161.518 23.341V28.1456C161.518 28.6014 161.339 28.9825 160.973 29.2889L160.42 29.7447C160.054 30.051 159.688 30.2005 159.322 30.2005H152.776C152.41 30.2005 152.044 30.051 151.678 29.7447L151.132 29.2889C150.766 28.9825 150.579 28.6014 150.579 28.1456V27.2266H152.499V27.6599C152.499 27.8916 152.514 28.041 152.537 28.1083C152.559 28.1755 152.641 28.2652 152.776 28.3698C152.91 28.4744 153.022 28.5417 153.097 28.5641C153.172 28.5865 153.351 28.6014 153.62 28.6014H158.47C158.746 28.6014 158.918 28.5865 158.993 28.5641C159.067 28.5417 159.18 28.4744 159.314 28.3698C159.449 28.2652 159.531 28.1755 159.553 28.1083C159.576 28.041 159.591 27.8916 159.591 27.6599V23.8118C159.591 23.5801 159.576 23.4307 159.553 23.3634C159.531 23.2962 159.449 23.2065 159.314 23.1019C159.18 22.9973 159.067 22.9301 158.993 22.9076C158.918 22.8852 158.739 22.8703 158.47 22.8703V22.8778Z" fill="white"/>
<path d="M176.918 28.594V30.193H166.667V14.1802H176.918V15.7792H168.587V21.2713H175.633V22.8703H168.587V28.594H176.918Z" fill="white"/>
<path d="M182.067 14.1802H190.533C190.899 14.1802 191.265 14.3296 191.631 14.636L192.184 15.0918C192.55 15.3981 192.73 15.7792 192.73 16.235V21.5926C192.73 22.0633 192.535 22.4593 192.154 22.7806L191.579 23.2589C191.243 23.5353 190.891 23.6698 190.525 23.6698H189.248L191.601 27.3312C191.766 27.5927 191.885 27.7571 191.952 27.8244C192.02 27.8916 192.177 27.9962 192.423 28.1307L192.677 28.2652C192.954 28.4147 193.111 28.5417 193.155 28.6313C193.2 28.721 193.223 28.9452 193.223 29.2964V30.1856H192.647C192.371 30.1856 192.184 30.1706 192.087 30.1407C191.99 30.1108 191.818 30.0137 191.571 29.8418L191.138 29.543C190.802 29.3113 190.525 29.0199 190.316 28.6538L187.275 23.7819H183.98V30.193H182.059V14.1802H182.067ZM183.987 15.7792V22.1903H189.688C189.965 22.1903 190.137 22.1754 190.211 22.153C190.286 22.1306 190.398 22.0633 190.533 21.9587C190.667 21.8541 190.749 21.7644 190.772 21.6972C190.794 21.6299 190.809 21.4805 190.809 21.2488V16.7207C190.809 16.4891 190.794 16.3396 190.772 16.2724C190.749 16.2051 190.667 16.1155 190.533 16.0109C190.398 15.9062 190.286 15.839 190.211 15.8166C190.137 15.7942 189.957 15.7792 189.688 15.7792H183.987Z" fill="white"/>
<path d="M203.191 28.7808H203.28C203.28 28.6911 203.325 28.4894 203.415 28.183L207.764 14.1727H209.803L204.491 30.1931H201.973L196.66 14.1727H198.7L203.049 28.183C203.138 28.4894 203.183 28.6837 203.183 28.7808H203.191Z" fill="white"/>
<path d="M223.836 28.594V30.193H213.584V14.1802H223.836V15.7792H215.505V21.2713H222.551V22.8703H215.505V28.594H223.836Z" fill="white"/>
<path d="M228.985 14.1802H237.45C237.817 14.1802 238.183 14.3296 238.549 14.636L239.102 15.0918C239.468 15.3981 239.647 15.7792 239.647 16.235V21.5926C239.647 22.0633 239.453 22.4593 239.072 22.7806L238.497 23.2589C238.16 23.5353 237.809 23.6698 237.443 23.6698H236.165L238.519 27.3312C238.683 27.5927 238.803 27.7571 238.87 27.8244C238.937 27.8916 239.094 27.9962 239.341 28.1307L239.595 28.2652C239.871 28.4147 240.028 28.5417 240.073 28.6313C240.118 28.721 240.14 28.9452 240.14 29.2964V30.1856H239.565C239.289 30.1856 239.102 30.1706 239.005 30.1407C238.908 30.1108 238.736 30.0137 238.489 29.8418L238.056 29.543C237.719 29.3113 237.443 29.0199 237.234 28.6538L234.193 23.7819H230.897V30.193H228.977V14.1802H228.985ZM230.905 15.7792V22.1903H236.606C236.883 22.1903 237.054 22.1754 237.129 22.153C237.204 22.1306 237.316 22.0633 237.45 21.9587C237.585 21.8541 237.667 21.7644 237.69 21.6972C237.712 21.6299 237.727 21.4805 237.727 21.2488V16.7207C237.727 16.4891 237.712 16.3396 237.69 16.2724C237.667 16.2051 237.585 16.1155 237.45 16.0109C237.316 15.9062 237.204 15.839 237.129 15.8166C237.054 15.7942 236.875 15.7792 236.606 15.7792H230.905Z" fill="white"/>
<path d="M255.414 28.594V30.193H245.528V14.1802H247.448V28.6015H255.414V28.594Z" fill="white"/>
<path d="M268.968 28.594V30.193H258.716V14.1802H268.968V15.7792H260.637V21.2713H267.683V22.8703H260.637V28.594H268.968Z" fill="white"/>
<path d="M281.439 22.8778H275.969C275.603 22.8778 275.237 22.7283 274.871 22.422L274.251 21.8989C273.93 21.6374 273.773 21.331 273.773 20.9798V16.2425C273.773 15.7867 273.952 15.4056 274.318 15.0992L274.871 14.6434C275.237 14.3371 275.603 14.1876 275.969 14.1876H282.059C282.425 14.1876 282.792 14.3371 283.158 14.6434L283.711 15.0992C284.077 15.4056 284.256 15.7867 284.256 16.2425V17.1615H282.336V16.7282C282.336 16.4965 282.321 16.3471 282.298 16.2798C282.276 16.2126 282.194 16.1229 282.059 16.0183C281.925 15.9137 281.813 15.8464 281.738 15.824C281.663 15.8016 281.484 15.7867 281.215 15.7867H276.821C276.545 15.7867 276.373 15.8016 276.298 15.824C276.223 15.8464 276.119 15.9137 275.977 16.0183C275.842 16.1229 275.76 16.2126 275.738 16.2798C275.715 16.3471 275.7 16.4965 275.7 16.7282V20.3447C275.7 20.5763 275.715 20.7258 275.738 20.793C275.76 20.8603 275.842 20.9499 275.977 21.0545C276.111 21.1592 276.223 21.2264 276.298 21.2488C276.373 21.2712 276.552 21.2862 276.821 21.2862H282.291C282.657 21.2862 283.023 21.4356 283.389 21.742L283.935 22.1978C284.301 22.5041 284.488 22.8852 284.488 23.341V28.1456C284.488 28.6014 284.301 28.9825 283.935 29.2889L283.389 29.7447C283.023 30.051 282.657 30.2005 282.291 30.2005H275.745C275.379 30.2005 275.013 30.051 274.647 29.7447L274.094 29.2889C273.728 28.9825 273.548 28.6014 273.548 28.1456V27.2266H275.469V27.6599C275.469 27.8916 275.484 28.041 275.506 28.1083C275.529 28.1755 275.611 28.2652 275.745 28.3698C275.88 28.4744 275.992 28.5417 276.067 28.5641C276.141 28.5865 276.321 28.6014 276.59 28.6014H281.439C281.716 28.6014 281.887 28.5865 281.97 28.5641C282.044 28.5417 282.149 28.4744 282.291 28.3698C282.425 28.2652 282.508 28.1755 282.53 28.1083C282.552 28.041 282.567 27.8916 282.567 27.6599V23.8118C282.567 23.5801 282.552 23.4307 282.53 23.3634C282.508 23.2962 282.425 23.2065 282.291 23.1019C282.156 22.9973 282.044 22.9301 281.97 22.9076C281.895 22.8852 281.716 22.8703 281.439 22.8703V22.8778Z" fill="white"/>
<path d="M296.951 22.8778H291.482C291.116 22.8778 290.749 22.7283 290.383 22.422L289.763 21.8989C289.442 21.6374 289.285 21.331 289.285 20.9798V16.2425C289.285 15.7867 289.464 15.4056 289.83 15.0992L290.383 14.6434C290.749 14.3371 291.116 14.1876 291.482 14.1876H297.572C297.938 14.1876 298.304 14.3371 298.67 14.6434L299.223 15.0992C299.589 15.4056 299.768 15.7867 299.768 16.2425V17.1615H297.848V16.7282C297.848 16.4965 297.833 16.3471 297.811 16.2798C297.788 16.2126 297.706 16.1229 297.572 16.0183C297.437 15.9137 297.325 15.8464 297.25 15.824C297.176 15.8016 296.996 15.7867 296.727 15.7867H292.334C292.057 15.7867 291.885 15.8016 291.811 15.824C291.736 15.8464 291.631 15.9137 291.489 16.0183C291.355 16.1229 291.273 16.2126 291.25 16.2798C291.228 16.3471 291.213 16.4965 291.213 16.7282V20.3447C291.213 20.5763 291.228 20.7258 291.25 20.793C291.273 20.8603 291.355 20.9499 291.489 21.0545C291.624 21.1592 291.736 21.2264 291.811 21.2488C291.885 21.2712 292.065 21.2862 292.334 21.2862H297.803C298.169 21.2862 298.535 21.4356 298.902 21.742L299.447 22.1978C299.813 22.5041 300 22.8852 300 23.341V28.1456C300 28.6014 299.813 28.9825 299.447 29.2889L298.902 29.7447C298.535 30.051 298.169 30.2005 297.803 30.2005H291.258C290.891 30.2005 290.525 30.051 290.159 29.7447L289.606 29.2889C289.24 28.9825 289.061 28.6014 289.061 28.1456V27.2266H290.981V27.6599C290.981 27.8916 290.996 28.041 291.018 28.1083C291.041 28.1755 291.123 28.2652 291.258 28.3698C291.392 28.4744 291.504 28.5417 291.579 28.5641C291.654 28.5865 291.833 28.6014 292.102 28.6014H296.951C297.228 28.6014 297.4 28.5865 297.482 28.5641C297.557 28.5417 297.661 28.4744 297.803 28.3698C297.938 28.2652 298.02 28.1755 298.042 28.1083C298.065 28.041 298.08 27.8916 298.08 27.6599V23.8118C298.08 23.5801 298.065 23.4307 298.042 23.3634C298.02 23.2962 297.938 23.2065 297.803 23.1019C297.669 22.9973 297.557 22.9301 297.482 22.9076C297.407 22.8852 297.228 22.8703 296.951 22.8703V22.8778Z" fill="white"/>
<path d="M142.553 13.8298L134.542 29.849L135.945 30.5509L143.956 14.5317L142.553 13.8298Z" fill="#00E399"/>
<path d="M35.1456 31.1197H38.1476V34.1085C38.1476 35.7599 36.8042 37.0974 35.1456 37.0974H17.1331L20.1352 31.1197H35.1456ZM42.5913 25.1419H38.1476V31.1197H42.5913V25.1419ZM20.1352 22.1531C20.1352 23.8044 21.4787 25.1419 23.1373 25.1419H38.1476V22.1531C38.1476 20.5017 36.8042 19.1642 35.1456 19.1642H20.1352V22.1531ZM15.6915 19.1642H20.1352V13.1865H15.6915V19.1642ZM26.1394 13.1865H38.1476L41.1497 7.20874H23.1373C21.4787 7.20874 20.1352 8.54627 20.1352 10.1976V13.1865H26.1394Z" fill="#00E399"/>
</g>
<defs>
<clipPath id="clip0_95_1335">
<rect width="300" height="43.4133" fill="white" transform="translate(0 0.483765)"/>
</clipPath>
</defs>
</svg>
