<svg width="240" height="241" viewBox="0 0 240 241" fill="none" xmlns="http://www.w3.org/2000/svg">
<g clip-path="url(#clip0_95_1333)">
<rect x="39.5" y="0.483765" width="1" height="240" fill="url(#paint0_linear_95_1333)" fill-opacity="0.25"/>
<rect x="79.5" y="0.483765" width="1" height="240" fill="url(#paint1_linear_95_1333)" fill-opacity="0.25"/>
<rect x="119.5" y="0.483765" width="1" height="240" fill="url(#paint2_linear_95_1333)" fill-opacity="0.25"/>
<rect x="159.5" y="0.483765" width="1" height="240" fill="url(#paint3_linear_95_1333)" fill-opacity="0.25"/>
<rect x="199.5" y="0.483765" width="1" height="240" fill="url(#paint4_linear_95_1333)" fill-opacity="0.25"/>
<rect x="240" y="39.9838" width="1" height="240" transform="rotate(90 240 39.9838)" fill="url(#paint5_linear_95_1333)" fill-opacity="0.25"/>
<rect x="240" y="79.9838" width="1" height="240" transform="rotate(90 240 79.9838)" fill="url(#paint6_linear_95_1333)" fill-opacity="0.25"/>
<rect x="240" y="119.984" width="1" height="240" transform="rotate(90 240 119.984)" fill="url(#paint7_linear_95_1333)" fill-opacity="0.25"/>
<rect x="240" y="159.984" width="1" height="240" transform="rotate(90 240 159.984)" fill="url(#paint8_linear_95_1333)" fill-opacity="0.25"/>
<rect x="240" y="199.984" width="1" height="240" transform="rotate(90 240 199.984)" fill="url(#paint9_linear_95_1333)" fill-opacity="0.25"/>
<rect x="81" y="40.5833" width="119" height="119" stroke="#00E399" stroke-width="2"/>
<path d="M199.845 160.259L159.68 199.533C159.426 199.78 159 199.601 159 199.247L159 159.573L183 159.573L199.566 159.573C199.924 159.573 200.102 160.009 199.845 160.259Z" stroke="#00E399" stroke-width="2"/>
<path d="M40 81.5833H159V199.592H40V81.5833Z" stroke="#00E399" stroke-width="2"/>
<path d="M40.0971 80.8906L80.3172 40.6705C80.5691 40.4186 81 40.597 81 40.9534V81.5735H57H40.3799C40.0235 81.5735 39.8451 81.1426 40.0971 80.8906Z" stroke="#00E399" stroke-width="2"/>
</g>
<defs>
<linearGradient id="paint0_linear_95_1333" x1="40" y1="0.483765" x2="40" y2="240.484" gradientUnits="userSpaceOnUse">
<stop stop-color="white" stop-opacity="0"/>
<stop offset="0.119792" stop-color="white"/>
<stop offset="0.880208" stop-color="white"/>
<stop offset="1" stop-color="white" stop-opacity="0"/>
</linearGradient>
<linearGradient id="paint1_linear_95_1333" x1="80" y1="0.483765" x2="80" y2="240.484" gradientUnits="userSpaceOnUse">
<stop stop-color="white" stop-opacity="0"/>
<stop offset="0.119792" stop-color="white"/>
<stop offset="0.880208" stop-color="white"/>
<stop offset="1" stop-color="white" stop-opacity="0"/>
</linearGradient>
<linearGradient id="paint2_linear_95_1333" x1="120" y1="0.483765" x2="120" y2="240.484" gradientUnits="userSpaceOnUse">
<stop stop-color="white" stop-opacity="0"/>
<stop offset="0.119792" stop-color="white"/>
<stop offset="0.880208" stop-color="white"/>
<stop offset="1" stop-color="white" stop-opacity="0"/>
</linearGradient>
<linearGradient id="paint3_linear_95_1333" x1="160" y1="0.483765" x2="160" y2="240.484" gradientUnits="userSpaceOnUse">
<stop stop-color="white" stop-opacity="0"/>
<stop offset="0.119792" stop-color="white"/>
<stop offset="0.880208" stop-color="white"/>
<stop offset="1" stop-color="white" stop-opacity="0"/>
</linearGradient>
<linearGradient id="paint4_linear_95_1333" x1="200" y1="0.483765" x2="200" y2="240.484" gradientUnits="userSpaceOnUse">
<stop stop-color="white" stop-opacity="0"/>
<stop offset="0.119792" stop-color="white"/>
<stop offset="0.880208" stop-color="white"/>
<stop offset="1" stop-color="white" stop-opacity="0"/>
</linearGradient>
<linearGradient id="paint5_linear_95_1333" x1="240.5" y1="39.9838" x2="240.5" y2="279.984" gradientUnits="userSpaceOnUse">
<stop stop-color="white" stop-opacity="0"/>
<stop offset="0.119792" stop-color="white"/>
<stop offset="0.880208" stop-color="white"/>
<stop offset="1" stop-color="white" stop-opacity="0"/>
</linearGradient>
<linearGradient id="paint6_linear_95_1333" x1="240.5" y1="79.9838" x2="240.5" y2="319.984" gradientUnits="userSpaceOnUse">
<stop stop-color="white" stop-opacity="0"/>
<stop offset="0.119792" stop-color="white"/>
<stop offset="0.880208" stop-color="white"/>
<stop offset="1" stop-color="white" stop-opacity="0"/>
</linearGradient>
<linearGradient id="paint7_linear_95_1333" x1="240.5" y1="119.984" x2="240.5" y2="359.984" gradientUnits="userSpaceOnUse">
<stop stop-color="white" stop-opacity="0"/>
<stop offset="0.119792" stop-color="white"/>
<stop offset="0.880208" stop-color="white"/>
<stop offset="1" stop-color="white" stop-opacity="0"/>
</linearGradient>
<linearGradient id="paint8_linear_95_1333" x1="240.5" y1="159.984" x2="240.5" y2="399.984" gradientUnits="userSpaceOnUse">
<stop stop-color="white" stop-opacity="0"/>
<stop offset="0.119792" stop-color="white"/>
<stop offset="0.880208" stop-color="white"/>
<stop offset="1" stop-color="white" stop-opacity="0"/>
</linearGradient>
<linearGradient id="paint9_linear_95_1333" x1="240.5" y1="199.984" x2="240.5" y2="439.984" gradientUnits="userSpaceOnUse">
<stop stop-color="white" stop-opacity="0"/>
<stop offset="0.119792" stop-color="white"/>
<stop offset="0.880208" stop-color="white"/>
<stop offset="1" stop-color="white" stop-opacity="0"/>
</linearGradient>
<clipPath id="clip0_95_1333">
<rect width="240" height="240" fill="white" transform="translate(0 0.483765)"/>
</clipPath>
</defs>
</svg>
