<svg width="560" height="444" viewBox="0 0 560 444" fill="none" xmlns="http://www.w3.org/2000/svg">
<g clip-path="url(#clip0_95_1337)">
<path d="M493.11 48.6668C495.7 51.8649 496.824 56.1851 496.525 61.5499C496.225 66.9189 494.5 73.2949 491.437 80.5408C485.312 95.0316 473.884 112.891 458.065 132.938C426.431 173.025 377.314 221.761 318.208 269.632C259.103 317.504 201.227 355.426 155.444 378.042C132.548 389.352 112.704 396.821 97.2567 399.802C89.5326 401.293 82.9373 401.656 77.6232 400.833C72.3132 400.012 68.3208 398.015 65.7305 394.817C63.1403 391.619 62.0162 387.299 62.3157 381.934C62.6155 376.565 64.3405 370.189 67.4033 362.943C73.5284 348.452 84.9562 330.592 100.776 310.545C132.41 270.459 181.527 221.723 240.632 173.852C299.738 125.98 357.613 88.0581 403.397 65.4418C426.293 54.1316 446.137 46.6631 461.584 43.6818C469.308 42.1911 475.903 41.8282 481.217 42.6503C486.527 43.4717 490.52 45.4687 493.11 48.6668Z" stroke="white" stroke-width="1.10437"/>
<path d="M537.912 325.327C536.485 329.187 533.344 332.359 528.578 334.84C523.808 337.323 517.445 339.095 509.651 340.16C494.064 342.291 472.872 341.582 447.558 338.213C396.94 331.476 329.959 314.121 258.622 287.736C187.285 261.351 125.131 230.945 82.311 203.122C60.8972 189.209 44.3447 175.958 33.8954 164.197C28.6704 158.316 24.9915 152.831 22.9855 147.841C20.981 142.856 20.6601 138.404 22.0877 134.544C23.5154 130.684 26.6563 127.512 31.4223 125.031C36.192 122.547 42.5552 120.776 50.3493 119.71C65.9365 117.58 87.1277 118.289 112.442 121.657C163.06 128.394 230.041 145.749 301.378 172.134C372.715 198.519 434.869 228.925 477.689 256.748C499.103 270.662 515.655 283.913 526.105 295.673C531.33 301.554 535.009 307.04 537.015 312.029C539.019 317.014 539.34 321.467 537.912 325.327Z" stroke="white" stroke-width="1.10437"/>
<ellipse cx="344.5" cy="46" rx="36.5" ry="37" fill="url(#paint0_radial_95_1337)" fill-opacity="0.5"/>
<path d="M327.55 36.7769L344.327 42.6635V60.9121L327.55 53.5538V36.7769Z" fill="#00E399"/>
<path d="M361.104 36.7769L344.327 42.6635V60.9121L361.104 53.5538V36.7769Z" fill="#00D38F"/>
<path d="M344.327 30.8903L361.118 36.7913L344.327 42.6923L327.536 36.7913L344.327 30.8903Z" fill="#26F2B0"/>
<circle cx="56" cy="263" r="40" fill="url(#paint1_radial_95_1337)" fill-opacity="0.5"/>
<path d="M35.4943 251.592L56.0864 258.817V281.216L35.4943 272.184V251.592Z" fill="#00E399"/>
<path d="M76.6785 251.592L56.0864 258.817V281.216L76.6785 272.184V251.592Z" fill="#00D38F"/>
<path d="M56.0863 244.367L76.6961 251.61L56.0863 258.853L35.4765 251.61L56.0863 244.367Z" fill="#26F2B0"/>
<ellipse cx="401.5" cy="390" rx="41.5" ry="42" fill="url(#paint2_radial_95_1337)" fill-opacity="0.5"/>
<path d="M382.558 379.756L401.314 386.336V406.737L382.558 398.511V379.756Z" fill="#00E399"/>
<path d="M420.07 379.756L401.314 386.336V406.737L420.07 398.511V379.756Z" fill="#00D38F"/>
<path d="M401.314 373.175L420.086 379.772L401.314 386.369L382.542 379.772L401.314 373.175Z" fill="#26F2B0"/>
<g filter="url(#filter0_d_95_1337)">
<rect x="96.1128" y="234.472" width="259.78" height="259.78" rx="52.4575" transform="rotate(-45 96.1128 234.472)" fill="url(#paint3_linear_95_1337)"/>
<rect x="96.1128" y="234.472" width="259.78" height="259.78" rx="52.4575" transform="rotate(-45 96.1128 234.472)" stroke="url(#paint4_linear_95_1337)" stroke-width="3"/>
</g>
<path d="M305.806 273.414H318.678V286.224C318.678 293.302 312.918 299.034 305.806 299.034H228.57L241.442 273.414H305.806ZM337.733 247.793H318.678V273.414H337.733V247.793ZM241.442 234.982C241.442 242.06 247.203 247.793 254.315 247.793H318.678V234.982C318.678 227.905 312.918 222.172 305.806 222.172H241.442V234.982ZM222.388 222.172H241.442V196.551H222.388V222.172ZM267.188 196.551H318.678L331.551 170.93H254.315C247.203 170.93 241.442 176.663 241.442 183.741V196.551H267.188Z" fill="#181818"/>
</g>
<defs>
<filter id="filter0_d_95_1337" x="56.3413" y="15.0081" width="446.928" height="446.928" filterUnits="userSpaceOnUse" color-interpolation-filters="sRGB">
<feFlood flood-opacity="0" result="BackgroundImageFix"/>
<feColorMatrix in="SourceAlpha" type="matrix" values="0 0 0 0 0 0 0 0 0 0 0 0 0 0 0 0 0 0 127 0" result="hardAlpha"/>
<feOffset dy="4"/>
<feGaussianBlur stdDeviation="30"/>
<feComposite in2="hardAlpha" operator="out"/>
<feColorMatrix type="matrix" values="0 0 0 0 0 0 0 0 0 0 0 0 0 0 0 0 0 0 0.7 0"/>
<feBlend mode="normal" in2="BackgroundImageFix" result="effect1_dropShadow_95_1337"/>
<feBlend mode="normal" in="SourceGraphic" in2="effect1_dropShadow_95_1337" result="shape"/>
</filter>
<radialGradient id="paint0_radial_95_1337" cx="0" cy="0" r="1" gradientUnits="userSpaceOnUse" gradientTransform="translate(344.5 46) rotate(90) scale(33.0268 32.5805)">
<stop stop-color="#00E399"/>
<stop offset="1" stop-color="#00E399" stop-opacity="0"/>
</radialGradient>
<radialGradient id="paint1_radial_95_1337" cx="0" cy="0" r="1" gradientUnits="userSpaceOnUse" gradientTransform="translate(56 263) rotate(90) scale(35.7047)">
<stop stop-color="#00E399"/>
<stop offset="1" stop-color="#00E399" stop-opacity="0"/>
</radialGradient>
<radialGradient id="paint2_radial_95_1337" cx="0" cy="0" r="1" gradientUnits="userSpaceOnUse" gradientTransform="translate(401.5 390) rotate(90) scale(37.4899 37.0436)">
<stop stop-color="#00E399"/>
<stop offset="1" stop-color="#00E399" stop-opacity="0"/>
</radialGradient>
<linearGradient id="paint3_linear_95_1337" x1="226.003" y1="234.472" x2="226.003" y2="494.252" gradientUnits="userSpaceOnUse">
<stop stop-color="#28FCB7"/>
<stop offset="0.505208" stop-color="#00E399"/>
</linearGradient>
<linearGradient id="paint4_linear_95_1337" x1="226.003" y1="234.472" x2="226.003" y2="494.252" gradientUnits="userSpaceOnUse">
<stop stop-color="#92FFDB"/>
<stop offset="1" stop-color="#00B178"/>
</linearGradient>
<clipPath id="clip0_95_1337">
<rect width="560" height="443.484" fill="white"/>
</clipPath>
</defs>
</svg>
