<svg width="227" height="264" viewBox="0 0 227 264" fill="none" xmlns="http://www.w3.org/2000/svg">
<path d="M166.935 213.2H191.153V238.6C191.153 252.633 180.315 264 166.935 264H21.6295L45.8471 213.2H166.935ZM227 162.4H191.153V213.2H227V162.4ZM45.8471 137C45.8471 151.033 56.6846 162.4 70.0647 162.4H191.153V137C191.153 122.967 180.315 111.6 166.935 111.6H45.8471V137ZM10 111.6H45.8471V60.8H10V111.6ZM94.2824 60.8H191.153L215.371 10H70.0647C56.6846 10 45.8471 21.3666 45.8471 35.4V60.8H94.2824Z" fill="#181818" fill-opacity="0.7"/>
<path d="M156.935 203.2H181.153V228.6C181.153 242.633 170.315 254 156.935 254H11.6295L35.8471 203.2H156.935ZM217 152.4H181.153V203.2H217V152.4ZM35.8471 127C35.8471 141.033 46.6846 152.4 60.0647 152.4H181.153V127C181.153 112.967 170.315 101.6 156.935 101.6H35.8471V127ZM0 101.6H35.8471V50.8H0V101.6ZM84.2824 50.8H181.153L205.371 0H60.0647C46.6846 0 35.8471 11.3666 35.8471 25.4V50.8H84.2824Z" fill="url(#paint0_linear_111_1638)"/>
<defs>
<linearGradient id="paint0_linear_111_1638" x1="181" y1="202.5" x2="36" y2="51.5" gradientUnits="userSpaceOnUse">
<stop stop-color="#00E399"/>
<stop offset="1" stop-color="#28FCB7"/>
</linearGradient>
</defs>
</svg>
